<svg xmlns="http://www.w3.org/2000/svg" width="329.004" height="311.305" viewBox="0 0 329.004 311.305" style="color: initial !important;"><defs><style>.a{fill:#ffffff;}.b{fill:#e8621a;}.c{fill:#211715;}.d{fill:#c6c6c6;}.e{fill:#645d5c;}.f{fill:none;}</style></defs><path class="a" d="M190.9,164.738c3.607-9.273,7.089-18.653,9.515-26.061,2.782-8.491,6.148-17.2,8.366-27.2a37.516,37.516,0,0,1-6.932.353l-11.032-.42a55.19,55.19,0,0,1-7.623,4.8,62.6,62.6,0,0,1-12.848,4.393,46.941,46.941,0,0,1-4.681.651,36.27,36.27,0,0,1-12.354-.882c.089,1.01.144,1.639.144,1.639,2.432,25.119,10.593,50.155,14.017,60.055a187.4,187.4,0,0,0,7.435,17.857l1.659-.32C179.247,193.627,185.228,179.314,190.9,164.738Z"/><path class="b" d="M174.946,200.01a188.239,188.239,0,0,1-7.476-17.946,301.142,301.142,0,0,1-12.32-47.255,57.012,57.012,0,0,0,27.972,1.876,57.833,57.833,0,0,0,20.069-6.215c-.948,2.781-1.893,5.5-2.778,8.207-6.24,19.052-19.459,51.15-23.849,60.924Z"/><path class="c" d="M281.631,253.529q7.556,0,15.113-.024l23.885-.039q3.029,0,6.057-.009c3.088,0,3.093-4.8,0-4.8q-7.81,0-15.622.025l-23.744.038q-2.844,0-5.689.009c-3.089,0-3.094,4.8,0,4.8Z"/><path class="c" d="M2.318,253.537c8.082,0,16.164-.047,24.245-.07,1.375,0,2.749-.009,4.123-.01,3.089,0,3.094-4.8,0-4.8-8.218,0-16.436.046-24.654.07-1.238,0-2.476.009-3.714.01-3.088,0-3.093,4.8,0,4.8Z"/><path class="c" d="M63.666,140.733a12.287,12.287,0,0,0,5.041-4.2,8.694,8.694,0,0,0,1.136-7.637c-2.5-6.858-11.244-4.324-16.035-1.715a11.019,11.019,0,0,0-3.7,2.772,3.608,3.608,0,0,0,.245,4.714c2.2,2.136,5.525,1.131,8.033.26,5.629-1.954,11.95-5.366,14.231-11.225a8.031,8.031,0,0,0-1.28-8.158,10.353,10.353,0,0,0-7.895-3.294c-3.221-.027-6.5.935-9.594,1.766a41.5,41.5,0,0,0-7.006,2.5,28.9,28.9,0,0,0-6.171,4.043c-2.1,1.757-5.355,4.393-3.716,7.47,1.343,2.521,4.6,2.6,7.043,2.144a62.955,62.955,0,0,0,7.991-2.012,57.343,57.343,0,0,0,14.627-7.391c2.452-1.683,4.9-3.382,6.391-6.035a9.223,9.223,0,0,0,.346-8.927c-2.778-5.11-10.009-4.949-14.93-4.248a71.692,71.692,0,0,0-18.226,5.383,34.95,34.95,0,0,0-7.565,4.333,10.728,10.728,0,0,0-4.153,5.478c-.5,1.954-.034,4.192,1.832,5.2a6.672,6.672,0,0,0,3.908.515c3.889-.446,7.6-2,11.164-3.54a136.822,136.822,0,0,0,13.077-6.562q3.272-1.845,6.453-3.846a35.615,35.615,0,0,0,5.858-4.1c3.316-3.205,5.711-10.031,1.483-13.521-1.905-1.572-4.463-2.04-6.85-2.3a25.076,25.076,0,0,0-7.037.26,74.137,74.137,0,0,0-17.6,5.444,44.265,44.265,0,0,0-7.065,4.018,2.465,2.465,0,0,0-.861,3.284,2.422,2.422,0,0,0,3.284.861c5.973-4.185,12.883-6.5,19.922-8.182a26.083,26.083,0,0,1,9.195-.9,11.706,11.706,0,0,1,3.279.785,4.631,4.631,0,0,1,.638.365c-.389-.273.333.346.134.109-.152-.182.213.369.234.422a2.793,2.793,0,0,1,.155.684c.266,2.575-1.643,4.93-3.635,6.292-2.423,1.656-4.915,3.21-7.443,4.7a133.044,133.044,0,0,1-16.2,8.277,43.371,43.371,0,0,1-7.385,2.48c-.262.058-.525.107-.789.156-.093.017-.188.03-.281.045-.35.059.588-.045.012,0-.4.028-.783.046-1.18.042-.607,0,.035.033.04.022a1.729,1.729,0,0,1-.455-.116c.189.157.484.261.149.041.143.094.392.385.1.028l.617,1.059c-.015-.044-.29-.764-.124-.257-.022-.065.023-.781-.045-.263a1.792,1.792,0,0,1,.25-.782,7.749,7.749,0,0,1,1.941-2.183,29.493,29.493,0,0,1,7.369-4.2,77.447,77.447,0,0,1,8.851-3.04,53.824,53.824,0,0,1,8.343-1.872c3.47-.44,11.687-.422,9.423,5.377-1,2.564-3.535,4.062-5.708,5.524a60.007,60.007,0,0,1-7.084,4.144,45.713,45.713,0,0,1-6.968,2.7c-1.3.388-2.6.728-3.922,1.031a17.374,17.374,0,0,1-3.761.683,4.234,4.234,0,0,1-.83-.143l-.11-.062a.773.773,0,0,1,.415.532c.289.957-.346.726.271.331a12.373,12.373,0,0,0,1.415-1.364c.537-.492,1.087-.975,1.66-1.425a23.832,23.832,0,0,1,5.685-3.3,49.816,49.816,0,0,1,7-2.113c2.73-.664,6.021-1.727,8.764-.575a3.451,3.451,0,0,1,1.865,5c-1.14,2.4-3.394,4.049-5.623,5.358a28.9,28.9,0,0,1-4.78,2.274q-1.237.448-2.509.8a5.609,5.609,0,0,1-.915.226c.219-.021-.727.081-.5-.046.041-.023.112.2.146.146q-.334,2.187.3,1.428.351-.252.712-.488A21.445,21.445,0,0,1,57,130.929a18.69,18.69,0,0,1,4.727-1.556c1.082-.207,2.623-.388,3.347.569a3.219,3.219,0,0,1,.327,2.37,6.262,6.262,0,0,1-1.515,2.694c-.036.041-.576.526-.16.2a5.271,5.271,0,0,1-.558.362c-.622.371-1.281.684-1.922,1.021-2.736,1.436-.313,5.58,2.423,4.144Z"/><path class="d" d="M153.453,122.009c2.432,25.119,10.593,50.155,14.017,60.055a187.4,187.4,0,0,0,7.435,17.857l1.659-.32c4.39-9.774,17.609-41.872,23.849-60.924,2.816-8.595,6.231-17.414,8.447-27.568l2.746,1.306,9.85,4.681c15.694,4.582,28.72,10.367,37.644,23.248,8.1,11.689,13.219,32.54,15.51,41.019,2.361,8.737,4.821,17.59,6.557,27.707.952,5.255,2.722,15.937,2.836,19.889.092,3.165-.45,10.251-1.346,13.117a29.65,29.65,0,0,1-10.31,15.329c-8.945,7.181-23.35,13.17-31.19,15.94h-71l-61.569-61.473c-2.666-2.077-4.546-10.705-3.625-16.25,2.213-13.4,6.431-31.556,8.829-38.353,2.151-6.095,4.615-16,10.9-23.094,4.114-4.64,12.463-8.541,20.021-11.07l8.588-2.874c.093,1.089.153,1.778.153,1.778Z"/><path class="c" d="M110.282,210.175a5.589,5.589,0,0,1-.5-.475c-.178-.189,0,.024.032.059a4.484,4.484,0,0,1-.266-.391,12.3,12.3,0,0,1-.728-1.373,21.873,21.873,0,0,1-1.257-4.444,25.1,25.1,0,0,1,.018-9.113c1.268-7.339,2.8-14.637,4.517-21.884,1.291-5.447,2.735-10.822,4.511-16.129,2.132-6.374,4.129-12.83,8.053-18.382,4.749-6.717,13.154-10.084,20.686-12.624,2.912-.982,1.663-5.62-1.276-4.629a80.611,80.611,0,0,0-11.875,4.986,32.873,32.873,0,0,0-9.1,6.582c-5.144,5.659-7.887,12.967-10.24,20.118-1.831,5.565-3.524,11.107-4.911,16.805q-2.751,11.3-4.8,22.765a41.193,41.193,0,0,0-.819,6.161,31.563,31.563,0,0,0,.513,6.1c.532,3.093,1.5,7.158,4.045,9.265a2.469,2.469,0,0,0,3.394,0,2.418,2.418,0,0,0,0-3.394Z"/><path class="a" d="M225.187,271.668l-47.476-2.158c3.867,12.318,7.528,24,10.055,32.079a5.637,5.637,0,0,1-2.787,6.691l-.566.293.808-.337c12.084-5.042,51.207-22.425,58.625-25.833l-4.566-13.209A32.408,32.408,0,0,1,225.187,271.668Z"/><path class="a" d="M216.17,278.679c-4.154,3.339-7.291,7.869-11.592,12.351-.617.643-3.149,2.332-5.1.827-1.284-.99-1.469-3.477-1-4.492,2.528-5.526,3.563-7.2,5.442-11.069-2.289,2.412-4.075,4.434-6.787,7.175l-2.763,2.793-3.471,3.509s-2.454,2.619-5.114,5.463c-2.829-9.036-6.463-20.621-10.132-32.305,3.319-4.163,6.241-8.857,10.294-12.418a18.319,18.319,0,0,1,10.234-4.813,25.149,25.149,0,0,1,4.749.16q4.506.46,8.982,1.174c5.422.865,11.5,1.879,15.836-1.792,5.62,4.974,10.722,14.791,13.539,23.952a22.3,22.3,0,0,0-2.914,1.7c-.627.429-2.645,2.216-3.312,2.579a46.017,46.017,0,0,1-16.549,5.114"/><path class="c" d="M227.968,237.924c4.927-2.09,9.661-4.524,14.473-6.855a2.413,2.413,0,0,0,.861-3.284,2.462,2.462,0,0,0-3.283-.861c-4.812,2.331-9.547,4.766-14.474,6.855a2.407,2.407,0,0,0-.861,3.284,2.479,2.479,0,0,0,3.284.861Z"/><path class="c" d="M231.151,192.705l7.318,26.786c.813,2.976,5.445,1.713,4.628-1.276l-7.318-26.786c-.813-2.976-5.445-1.713-4.628,1.276Z"/><path class="c" d="M223.607,243.865c-3.41,2.177-7.642,1.691-11.454,1.109-4.715-.72-9.536-1.661-14.317-1.728-9.747-.135-16.147,7.638-21.444,14.767a2.416,2.416,0,0,0,.861,3.284,2.457,2.457,0,0,0,3.283-.861c2.5-3.367,5.095-6.931,8.554-9.387a16.556,16.556,0,0,1,5.31-2.607,17.47,17.47,0,0,1,6.286-.205c4.453.442,8.844,1.278,13.286,1.789,4.129.475,8.457.282,12.057-2.016,2.6-1.658.191-5.814-2.422-4.145Z"/><path class="c" d="M186.548,261.34l-7.34,7.276a2.4,2.4,0,0,0,3.394,3.394l7.34-7.276a2.4,2.4,0,0,0-3.394-3.394Z"/><path class="c" d="M187.228,282.222c3.7-4.325,7.756-8.348,11.8-12.347a2.4,2.4,0,1,0-3.394-3.395c-4.048,4-8.1,8.023-11.805,12.348a2.4,2.4,0,0,0,3.4,3.394Z"/><path class="c" d="M192.589,291.47c2.726-2.756,5.487-5.482,8.162-8.288,2.363-2.478,4.653-5.024,7.059-7.461a2.4,2.4,0,0,0-3.394-3.394c-2.406,2.437-4.7,4.983-7.06,7.461-2.674,2.806-5.435,5.532-8.161,8.288a2.4,2.4,0,0,0,3.394,3.394Z"/><path class="c" d="M216.505,280.988a52.452,52.452,0,0,0,14.245-3.739,22.131,22.131,0,0,0,5.341-3.073c.329-.266.655-.537.983-.805.161-.132.321-.264.483-.393.309-.247-.268.19-.038.031a25.458,25.458,0,0,1,2.99-1.752,2.4,2.4,0,1,0-2.423-4.144,24.915,24.915,0,0,0-4.619,3.038,17.1,17.1,0,0,1-1.428,1.129,22.16,22.16,0,0,1-2.93,1.481,44.4,44.4,0,0,1-12.6,3.427,2.477,2.477,0,0,0-2.4,2.4,2.414,2.414,0,0,0,2.4,2.4Z"/><path class="c" d="M223.17,246.212c3.866,2.885,6.681,7.51,8.922,11.766a68.509,68.509,0,0,1,6,16c.716,3,5.346,1.731,4.629-1.277a73.546,73.546,0,0,0-6.674-17.5c-2.641-4.942-5.923-9.752-10.457-13.135a2.416,2.416,0,0,0-3.283.861,2.457,2.457,0,0,0,.861,3.284Z"/><path class="c" d="M201.122,276.544c-.981,1.959-2,3.9-2.961,5.867a40.811,40.811,0,0,0-2.032,4.383,6.959,6.959,0,0,0-.033,3.9,5.48,5.48,0,0,0,7.5,3.708c2.884-1.146,4.785-3.929,6.747-6.209a61.119,61.119,0,0,1,7.527-7.816,2.417,2.417,0,0,0,0-3.394,2.456,2.456,0,0,0-3.395,0c-4.423,3.6-7.649,8.356-11.63,12.39-.063.063-.405.326-.136.131.287-.209-.313.184-.38.222-.112.063-.571.27-.219.133-.141.055-.712.218-.583.195a.582.582,0,0,1-.609-.109c.232.136-.134-.228.081.095a3.469,3.469,0,0,1-.212-.37c.112.221.045.153,0-.039-.049-.217-.115-.427-.153-.648.078.456.016-.171.009-.324,0-.1.019-.2.01-.3,0,.053-.119.4-.025.177.031-.074.031-.17.057-.247.119-.352-.109.214.075-.177.531-1.13,1.054-2.264,1.6-3.387.943-1.931,1.944-3.833,2.906-5.755a2.459,2.459,0,0,0-.861-3.284,2.424,2.424,0,0,0-3.283.861Z"/><path class="c" d="M185.859,310.55c7.83-3.269,15.592-6.7,23.358-10.12q13.45-5.917,26.867-11.912c3-1.339,5.992-2.674,8.974-4.043a2.42,2.42,0,0,0,.861-3.284,2.457,2.457,0,0,0-3.284-.861c-15.649,7.186-31.447,14.073-47.236,20.945q-3.173,1.38-6.35,2.748-1.329.571-2.659,1.137c-.2.084-1.358.574-.76.323l-1.047.439a2.48,2.48,0,0,0-1.676,2.952,2.414,2.414,0,0,0,2.952,1.676Z"/><path class="a" d="M27.55,212.754c30.789.512,101.073.671,126.168.839a8.791,8.791,0,0,1,8.329,6.14c5.971,18.886,19.4,61.642,25.719,81.856a5.633,5.633,0,0,1-5.4,7.317c-27.2-.1-100.462-.36-128.632-.93a5.621,5.621,0,0,1-5.263-3.964c-5.556-17.963-19.82-63.231-26.392-83.911A5.639,5.639,0,0,1,27.55,212.754Z"/><path class="c" d="M27.55,215.154c14.38.238,28.762.33,43.144.423q25.2.162,50.4.257,10.6.047,21.2.1,4.14.019,8.28.044c3.068.018,6.222-.168,8.25,2.621a15,15,0,0,1,1.753,4.442l1.413,4.479q1.686,5.346,3.369,10.692,3.912,12.425,7.814,24.852,3.846,12.245,7.685,24.491,1.619,5.165,3.236,10.329c.776,2.48,3.052,6.784-.325,8.328-1.137.52-2.6.294-3.828.289l-3.975-.014-9.171-.034q-10.964-.043-21.926-.093-24.94-.114-49.882-.3c-13.49-.105-26.983-.206-40.471-.469-1.506-.029-2.928-.387-3.617-1.89a32.124,32.124,0,0,1-1.2-3.821q-1.444-4.654-2.9-9.3-3.632-11.618-7.285-23.227-7.176-22.818-14.4-45.62c-.421-1.327-1.2-2.86-.774-4.241a3.288,3.288,0,0,1,3.211-2.334c3.087-.04,3.095-4.84,0-4.8a8.135,8.135,0,0,0-7.955,9.717,47.086,47.086,0,0,0,1.424,4.62q.786,2.478,1.571,4.957,3.755,11.855,7.491,23.714,7.407,23.493,14.747,47.007c1.1,3.547,1.85,7.464,5.563,9.212,2.806,1.321,6.54.857,9.59.9q10.269.161,20.538.249,25.367.246,50.735.355,22.469.117,44.936.194l4.051.014a13.22,13.22,0,0,0,5.08-.561,8.144,8.144,0,0,0,4.779-5.2c.653-2.148.116-4.154-.528-6.212q-3.466-11.083-6.944-22.163-7.822-24.933-15.675-49.858c-1.013-3.215-1.78-6.721-3.214-9.777-2.032-4.329-6.347-6.313-10.932-6.343q-8.967-.057-17.935-.092-24.9-.112-49.8-.233c-16.192-.088-32.384-.183-48.575-.381q-4.476-.055-8.952-.127C24.46,210.3,24.46,215.1,27.55,215.154Z"/><path class="c" d="M151.053,122.009a237.516,237.516,0,0,0,6.984,37.37c2.235,8.459,4.766,16.878,7.75,25.105,2.067,5.7,4.55,11.237,7.087,16.738a2.42,2.42,0,0,0,3.284.861,2.456,2.456,0,0,0,.861-3.284,216.49,216.49,0,0,1-9.7-24.778,300.449,300.449,0,0,1-8.164-30.785,203.715,203.715,0,0,1-3.3-21.227,2.466,2.466,0,0,0-2.4-2.4,2.417,2.417,0,0,0-2.4,2.4Z"/><path class="c" d="M241.8,275.659a148.632,148.632,0,0,0,20.688-9.063c7.424-3.99,14.912-8.866,19.252-16.312,3.6-6.181,4.611-13.15,4.676-20.211a60.406,60.406,0,0,0-.867-8.947c-.511-3.617-1.1-7.224-1.73-10.823-1.574-9-3.716-17.839-6.1-26.66-1.67-6.177-3.263-12.375-5.164-18.487a117.86,117.86,0,0,0-8.624-21.517,51.039,51.039,0,0,0-15.237-17.124c-6.427-4.586-13.833-7.652-21.3-10.1q-1.4-.459-2.809-.89-.666-.2-1.333-.4l-.767-.228c.225.067.243.142.128.1-.625-.223-1.23-.585-1.829-.869l-6.5-3.092-1.456-.691a2.466,2.466,0,0,0-3.284.861,2.42,2.42,0,0,0,.861,3.283c3.247,1.543,6.474,3.141,9.746,4.631a39.084,39.084,0,0,0,4.482,1.446c1.905.6,3.8,1.241,5.673,1.931a75.941,75.941,0,0,1,10.211,4.571,47.568,47.568,0,0,1,16.3,14.174c4.162,5.913,6.911,12.764,9.266,19.558,2.14,6.174,3.9,12.468,5.575,18.78,2.123,7.98,4.367,15.928,6.045,24.018,1.484,7.159,2.752,14.438,3.6,21.7a44.741,44.741,0,0,1,.178,8.232,35.086,35.086,0,0,1-1.566,9.251,26.894,26.894,0,0,1-5.059,8.934,41.572,41.572,0,0,1-9.5,7.686,123.042,123.042,0,0,1-20.758,10.122q-2.02.783-4.064,1.508a2.461,2.461,0,0,0-1.676,2.953,2.422,2.422,0,0,0,2.952,1.676Z"/><path class="c" d="M161.014,138.849A65.905,65.905,0,0,0,183.8,139a64.484,64.484,0,0,0,20.6-6.451c2.738-1.434.314-5.578-2.422-4.144a56.6,56.6,0,0,1-18.624,5.854c-7.083.967-13.988,1.339-21.057-.036a2.462,2.462,0,0,0-2.952,1.676,2.421,2.421,0,0,0,1.676,2.952Z"/><path class="c" d="M206.253,111.777c-1.808,7.763-4.443,15.272-7,22.809-1.916,5.648-3.811,11.294-5.876,16.89-4.264,11.557-8.821,23.008-13.538,34.386-1.766,4.26-3.419,8.228-5.348,12.527a2.475,2.475,0,0,0,.861,3.284,2.418,2.418,0,0,0,3.284-.861c4.071-9.075,7.792-18.318,11.473-27.556,4.546-11.41,8.966-22.883,12.818-34.548,2.811-8.509,5.918-16.912,7.954-25.655.7-3-3.927-4.288-4.628-1.276Z"/><path class="c" d="M219.012,125.7a30.534,30.534,0,0,1,2.653,4.664,11.787,11.787,0,0,1,1.141,3.125v-1.276q.992-1.361.507-.92.57-.428.256-.211a2.211,2.211,0,0,0-.343.211c-.382.228-.778.436-1.171.643-1.074.566-2.164,1.1-3.255,1.636-2.232,1.092-4.481,2.149-6.718,3.231a2.424,2.424,0,0,0-.485,3.77c1.98,2.131,3.976,4.248,5.909,6.422.635.716,1.84,1.658,2.09,2.606.188.712-.316,1.315-.657,1.919-1.833,3.246-3.743,6.449-5.68,9.634q-7.551,12.42-15.681,24.481c-3.081,4.574-6.226,9.1-9.482,13.557a2.418,2.418,0,0,0,.861,3.284,2.456,2.456,0,0,0,3.284-.861c6.151-8.411,11.94-17.089,17.557-25.863,4.715-7.364,9.435-14.784,13.647-22.452a6.5,6.5,0,0,0,.9-4.437,8.947,8.947,0,0,0-2.508-4.2c-2.222-2.548-4.543-5.008-6.844-7.484l-.486,3.769c3.67-1.776,7.477-3.383,11.007-5.431a4.315,4.315,0,0,0,1.665-1.413,3.665,3.665,0,0,0-.095-3.137,32.314,32.314,0,0,0-3.925-7.69,2.466,2.466,0,0,0-3.284-.861,2.421,2.421,0,0,0-.861,3.284Z"/><path class="e" d="M135.453,109.305c-6.99-2.12-12.007-5.686-15.179-11.227-4.032-7.093-3.921-15.158-2.52-23.2,1.643-9.329,3.728-20.565,5.824-29.815,3.233-14.134,6.1-21.639,13.089-29.173,6.269-6.049,19.4-13.408,35.33-13.5a57.814,57.814,0,0,1,23.145,4.311l1.193.666,5.484,3.064c8.607,3.857,14.237,12.31,16.961,17.792,3.636,7.332,4.607,18.211,6.463,26.695,2.209,10.07,4.5,16.959,6.1,25.444A27.088,27.088,0,0,1,227.886,99c-5.013,8.4-13.81,13.291-26.039,12.83Z"/><path class="a" d="M183.192,116.208a62.6,62.6,0,0,1-12.848,4.393,46.941,46.941,0,0,1-4.681.651c-10.05.9-18.383-1.735-26.241-8.156-7.5-6.125-10.763-15.79-11.945-26.478-.716-6.476-1.335-13.545-2.3-20.578A166.284,166.284,0,0,0,147.9,55.907c12.533-6.759,18-11.667,25.517-20.976,6.322,7.01,15.906,19.909,21.156,30.741l1.434,2.982a4,4,0,0,0,4.076,2.239l9.847-1.169a6.791,6.791,0,0,1,4.9-1.082,6.127,6.127,0,0,1,5.091,3.505c1.483,3.264.747,8.863-.9,12.193a17.776,17.776,0,0,1-6.709,7.909,12.944,12.944,0,0,1-6.99,1.445c-.316.656-.518,1.077-.518,1.077-.767,1.605-2.584,4.414-2.584,4.414a56.825,56.825,0,0,1-6.316,7.908,54.832,54.832,0,0,1-12.711,9.115"/><path class="f" d="M211.356,18.648c6.581,5.92,9.852,12.74,12.046,21.088a42.036,42.036,0,0,1,1.338,12.88c-.253,4.659-.47,15.619-3.856,21.514"/><path class="f" d="M203.227,12.768A46.712,46.712,0,0,0,172.075,4.1c-15.954,1-28.713,7.341-37.186,17.588C130,27.6,126.536,36.15,125.268,43.746a78.18,78.18,0,0,0,.894,26.809"/><path class="c" d="M168.425,77.689c-.591-2.182.01-7.134,4.115-7.417,5.405.216,5.489,6.231,3.573,8.992C174.544,81.525,170.13,82.337,168.425,77.689Z"/><path class="c" d="M136.295,77.605c-.541-2.189.011-7.157,3.77-7.442,4.95.216,5.025,6.25,3.27,9.02C141.9,81.452,137.856,82.268,136.295,77.605Z"/><path class="c" d="M152.758,82.5c-.7,1.178-1.37,2.378-1.964,3.612a5.392,5.392,0,0,0-.645,2.128A3.121,3.121,0,0,0,151.2,90.7a4.7,4.7,0,0,0,1.936,1.1,11.02,11.02,0,0,0,1.416.188l-.638-.086.053.008a2.638,2.638,0,0,0,1.849-.242,2.4,2.4,0,0,0,.861-3.284,2.313,2.313,0,0,0-1.434-1.1c-.4-.059-.807-.094-1.211-.146l.638.086a2.332,2.332,0,0,1-.533-.143l.573.242a2.478,2.478,0,0,1-.444-.262l.485.375a2.675,2.675,0,0,1-.37-.344l.376.486a.639.639,0,0,1-.078-.131l.242.574a1.108,1.108,0,0,1-.056-.218l.086.638a1.55,1.55,0,0,1,0-.236l-.086.638a2.472,2.472,0,0,1,.168-.57l-.242.573a37.126,37.126,0,0,1,2.109-3.919,2.4,2.4,0,1,0-4.144-2.422Z"/><path class="c" d="M211.142,71.8a4.9,4.9,0,0,1,4.56-.481,3.231,3.231,0,0,1,2.007,1.754c1.27,2.581.586,6.328-.317,8.962a16.173,16.173,0,0,1-5.1,7.343c-1.978,1.528-5.5,2.791-8.1,1.6a2.472,2.472,0,0,0-3.284.861,2.42,2.42,0,0,0,.861,3.284,13.274,13.274,0,0,0,10.872-.355,17.329,17.329,0,0,0,7.413-7.239,22.155,22.155,0,0,0,3.029-9.675c.225-3.12-.265-6.574-2.481-8.939a9.644,9.644,0,0,0-11.876-1.257c-2.559,1.7-.158,5.864,2.423,4.145Z"/><path class="f" d="M154.851,101.352a13.389,13.389,0,0,0,9.483.423c.819-.318,1.72-.866,2.63-1.293"/><path class="c" d="M184.4,118.281a54.791,54.791,0,0,0,13-9.294,52.244,52.244,0,0,0,5.687-6.86,43.753,43.753,0,0,0,3.787-6.144,2.462,2.462,0,0,0-.861-3.284,2.422,2.422,0,0,0-3.284.861c-4.449,9.081-11.955,15.984-20.75,20.576-2.739,1.43-.315,5.574,2.423,4.145Z"/><path class="c" d="M122.914,67.062c.99,7.519,1.476,15.105,2.555,22.611a47.089,47.089,0,0,0,5.591,17.215c6.331,10.769,19,17.07,31.315,16.932,7.732-.086,15.055-2.333,22.029-5.539a2.421,2.421,0,0,0,.861-3.284,2.457,2.457,0,0,0-3.284-.861c-10.47,4.814-22.851,7.126-33.631,1.89a30.481,30.481,0,0,1-12.479-10.481,40.907,40.907,0,0,1-5.527-15.56c-1.271-7.572-1.628-15.31-2.63-22.923a2.479,2.479,0,0,0-2.4-2.4,2.412,2.412,0,0,0-2.4,2.4Z"/><path class="c" d="M171.72,33.234a73.86,73.86,0,0,1-13.637,13.6,119.668,119.668,0,0,1-20.779,11.7c-3.859,1.763-7.808,3.311-11.772,4.82a2.468,2.468,0,0,0-1.676,2.952,2.419,2.419,0,0,0,2.952,1.677,186.067,186.067,0,0,0,22.7-10.213A81.309,81.309,0,0,0,167.33,45.3a93.283,93.283,0,0,0,7.784-8.67,2.473,2.473,0,0,0,0-3.394,2.419,2.419,0,0,0-3.394,0Z"/><path class="c" d="M171.72,36.628a145.047,145.047,0,0,1,10.723,13.621A122.56,122.56,0,0,1,192.5,66.884a2.424,2.424,0,0,0,3.284.861,2.451,2.451,0,0,0,.861-3.284,123.56,123.56,0,0,0-10.3-16.973,155.137,155.137,0,0,0-11.236-14.254c-2.07-2.3-5.456,1.1-3.394,3.394Z"/><path class="c" d="M136.091,106.991c-4.688-1.448-9.175-3.828-12.213-7.79-3.514-4.582-4.716-10.348-4.6-16.021.13-6.174,1.595-12.321,2.726-18.37,1.144-6.118,2.343-12.227,3.7-18.3,2.078-9.285,4.457-19,10.578-26.537,5.841-7.194,15.06-11.567,23.985-13.735a56.085,56.085,0,0,1,20.451-.948,52.983,52.983,0,0,1,8.5,1.861c1.342.408,2.669.866,3.98,1.363.218.082.433.168.651.25.886.332-.228-.147.305.142.322.176.641.359.962.538,2.7,1.508,5.123-2.637,2.423-4.145A43.686,43.686,0,0,0,183.7.92,63.285,63.285,0,0,0,163.717.68,57.7,57.7,0,0,0,146.68,6.142a44.8,44.8,0,0,0-11.62,7.965c-7.362,7.325-10.7,17.459-13.086,27.3-1.564,6.44-2.851,12.949-4.091,19.458s-2.747,13.1-3.268,19.707c-.559,7.085.553,14.565,4.712,20.493,3.76,5.358,9.313,8.649,15.488,10.555,2.958.914,4.223-3.718,1.276-4.628Z"/><path class="c" d="M203.287,13.9c6.158,3.744,10.975,9.961,13.88,16.511,3.351,7.557,3.9,16.2,5.564,24.214,1.77,8.515,4.413,16.824,6.1,25.357a25.018,25.018,0,0,1-5.885,21.69c-5.445,5.935-13.25,8.014-21.1,7.755-3.09-.1-3.086,4.7,0,4.8,8.014.264,16-1.723,22.212-6.97a29.556,29.556,0,0,0,10.1-22.8c-.09-4.448-1.311-8.889-2.383-13.182-1.122-4.494-2.347-8.962-3.414-13.47-2.085-8.813-2.767-18.074-5.78-26.645-3.008-8.556-9.089-16.673-16.872-21.4-2.646-1.609-5.061,2.541-2.422,4.145Z"/><path class="a" d="M207.14,93.736a4,4,0,0,0-4.042,4.083,3.933,3.933,0,0,0,4.478,3.676c2.577-.145,4.168-1.851,4.039-4.155A4,4,0,0,0,207.14,93.736Z"/><path class="c" d="M207.14,91.336a7.145,7.145,0,0,0-3.981,1.4,6.146,6.146,0,0,0,.418,10.153,7.4,7.4,0,0,0,7.446.035,6.273,6.273,0,0,0,2.826-6.807,6.512,6.512,0,0,0-6.709-4.785,2.4,2.4,0,1,0,0,4.8,5.741,5.741,0,0,1,1,.041l-.638-.086a5.057,5.057,0,0,1,.633.136c.092.027.181.061.272.089.411.124-.53-.273-.16-.068.159.089.321.17.474.271.215.143.259.315-.142-.119.059.064.134.116.2.176.1.093.476.547.2.186-.267-.346-.062-.076-.006.011s.109.177.157.269.184.405.012,0-.042-.094-.009.006a4.036,4.036,0,0,1,.143.615l-.085-.638a4.581,4.581,0,0,1,0,1.193l.086-.638a4.07,4.07,0,0,1-.138.607c-.032.1-.159.41.017,0s.045-.106,0-.012a3.63,3.63,0,0,0-.314.506c-.019-.061.448-.5.154-.217-.072.069-.138.145-.211.213s-.13.108-.19.166c.473-.464.349-.261.154-.134-.164.106-.338.187-.509.279-.246.131.583-.211.219-.1-.107.034-.212.073-.321.1a5.8,5.8,0,0,1-.691.144l.638-.086a6.013,6.013,0,0,1-1.45.019l.638.086a5.023,5.023,0,0,1-.666-.13c-.088-.024-.174-.054-.261-.08-.431-.128.218.108.222.106-.067.038-.482-.253-.553-.3-.087-.056-.356-.26-.009.008s.045.028-.03-.043-.122-.118-.18-.18c-.159-.172-.219-.391.116.172-.1-.161-.2-.316-.3-.479-.222-.387.105.241.09.241a2.165,2.165,0,0,1-.106-.3,4.423,4.423,0,0,1-.139-.644l.085.638a4.243,4.243,0,0,1,0-1.08l-.086.638a4.051,4.051,0,0,1,.128-.557c.026-.082.063-.162.086-.245-.18.636-.18.408-.068.2.048-.092.1-.182.157-.27s.261-.358-.006-.014-.055.076.014,0,.146-.155.224-.228.136-.117.2-.177c.2-.186-.5.341-.179.146.122-.073.445-.35.586-.331-.071-.009-.6.234-.2.089.093-.034.187-.064.282-.092a5.362,5.362,0,0,1,.721-.149l-.638.086c.128-.015.255-.027.384-.036a2.4,2.4,0,1,0,0-4.8Z"/><path class="c" d="M156.163,103.8c.171-.1.347-.182.52-.273.455-.24-.366.133-.077.025.1-.037.2-.077.3-.114a11.951,11.951,0,0,1,1.362-.4c.226-.053.454-.1.682-.142.116-.022.232-.04.348-.06.577-.1-.363.032-.021,0,.5-.045,1.006-.093,1.513-.1a13.853,13.853,0,0,1,1.4.045c.086.007.577.079.186.012l.092.016c.212.035.423.076.632.126a20.85,20.85,0,0,1,2.978,1.042,2.408,2.408,0,0,0,2.953-1.676,2.473,2.473,0,0,0-1.677-2.952,19.672,19.672,0,0,0-3.132-1.078,15.07,15.07,0,0,0-3.607-.331,14.9,14.9,0,0,0-6.869,1.72,2.4,2.4,0,1,0,2.423,4.144Z"/><path class="c" d="M177.491,63.542l2.662,2.451a2.517,2.517,0,0,0,1.7.7,2.67,2.67,0,0,0,1.7-.7,2.4,2.4,0,0,0,0-3.395l-2.661-2.45a2.517,2.517,0,0,0-1.7-.7,2.677,2.677,0,0,0-1.7.7,2.4,2.4,0,0,0,0,3.394Z"/><path class="a" d="M130.542,131.638c1-1.478,3.612-5.625,4.684-7.04,1.938-2.569,2.769-5.269,5.783-6.78,2.523-1.268,7.987-1.55,10.729-1.808,2.775-.258,4.922-.3,6.94.867a4.485,4.485,0,0,1,2.234,2.42,3.762,3.762,0,0,1-2.5,4.465c-2.812.86-5.543,1.242-8.412,1.893a8.774,8.774,0,0,0-4.282,1.729c-1.061,1.01-1.874,3.659-2.559,5.712"/><path class="c" d="M132.614,132.85c1.822-2.7,3.653-5.405,5.442-8.124.99-1.5,1.807-3.287,3.324-4.347a11.266,11.266,0,0,1,4.837-1.432c1.748-.247,3.515-.358,5.272-.514,1.818-.161,3.9-.479,5.621.318,1.13.524,2.165,1.517,1.053,2.474a6.869,6.869,0,0,1-2.719.845c-1.389.326-2.791.585-4.188.868-2.558.518-5.532.929-7.411,2.932-1.632,1.739-2.269,4.385-3,6.588-.976,2.938,3.658,4.2,4.628,1.276.577-1.736,1-4.4,2.746-5.135a18.821,18.821,0,0,1,3.371-.838c1.553-.33,3.117-.607,4.667-.956,2.633-.593,5.306-1.284,6.531-3.948a5.811,5.811,0,0,0-1.416-6.987c-3.771-3.282-8.918-2.383-13.48-1.917a29.9,29.9,0,0,0-6.517,1.143,11.282,11.282,0,0,0-5.632,4.362c-2.547,3.563-4.82,7.338-7.272,10.969-1.734,2.567,2.423,4.972,4.144,2.423Z"/><path class="a" d="M135.118,130.893a52.122,52.122,0,0,1,24.043-.485c.849.162,2.607.689,3.133,1.375a5.307,5.307,0,0,1,.742,2.1,5.978,5.978,0,0,1-1.156,3.93l-1.686,1.875a5.419,5.419,0,0,1,3.178,2.524,5.23,5.23,0,0,1-.294,4.991l-1.682,2.153a6.8,6.8,0,0,1,1.359,1.514,5.864,5.864,0,0,1,.33,4.632c-.69,2.33-1.179,4.007-1.956,6.287a20.738,20.738,0,0,1-1.887,4.228,5.42,5.42,0,0,1-3.446,2.564,3.867,3.867,0,0,1-4.313-3.855l-.388-.068c-.8,2.779-1.624,5.578-2.221,7.344-.494,1.444-1.373,3.851-1.983,5.261-.094.228-.436,1.007-.791,1.8-5.91-2.629-13.63-5.838-19.395-8.2l.548-2.825a72.42,72.42,0,0,0,.66-8.66q.347-10.158.7-20.293a8.655,8.655,0,0,1,1.234-4.624,9.58,9.58,0,0,1,5.272-3.573"/><path class="c" d="M124.565,171.64a50.552,50.552,0,0,0,9.812,5.269,111.832,111.832,0,0,0,12.709,4.753c2.964.892,4.231-3.739,1.276-4.629a101.665,101.665,0,0,1-11.878-4.408,49.779,49.779,0,0,1-9.5-5.129,2.416,2.416,0,0,0-3.283.861,2.455,2.455,0,0,0,.861,3.283Z"/><path class="c" d="M135.756,133.207a50.26,50.26,0,0,1,16.651-1.361,28.18,28.18,0,0,1,7.5,1.254c.121.047.691.4.506.173a4.964,4.964,0,0,1,.264.964,4.625,4.625,0,0,1-.49,1.88,2.473,2.473,0,0,0,0,3.394,2.417,2.417,0,0,0,3.394,0,7.842,7.842,0,0,0,.945-8.7c-1.549-2.654-5.581-2.928-8.276-3.31a56.424,56.424,0,0,0-21.766,1.077c-3,.745-1.727,5.375,1.276,4.629Z"/><path class="c" d="M141.983,140.722a59.194,59.194,0,0,1,14.528.574c1.509.214,3.318.571,4.247,1.4a2.6,2.6,0,0,1,.247,3.293,2.42,2.42,0,0,0,.861,3.283,2.45,2.45,0,0,0,3.284-.861,7.494,7.494,0,0,0,.294-7.413,8.7,8.7,0,0,0-5.907-4.01,57.607,57.607,0,0,0-8.263-1.075,46.526,46.526,0,0,0-9.291,0,2.472,2.472,0,0,0-2.4,2.4,2.416,2.416,0,0,0,2.4,2.4Z"/><path class="c" d="M143.14,148.83c3.687.267,7.371.56,11.045.971,2.148.24,6.435.231,6.8,3.149.191,1.521-.569,3.125-1,4.548a49.772,49.772,0,0,1-1.845,5.46c-.477,1.095-1.139,2.638-2.332,3.134a1.421,1.421,0,0,1-1.927-1.365,2.463,2.463,0,0,0-2.4-2.4,2.418,2.418,0,0,0-2.4,2.4,6.5,6.5,0,0,0,2.522,5.026,6.063,6.063,0,0,0,5.636.905c3.939-1.464,5.392-5.732,6.59-9.388,1.119-3.416,2.969-7.56,1.284-11.077a8.564,8.564,0,0,0-3.607-3.656,15.4,15.4,0,0,0-5.592-1.335c-4.248-.511-8.51-.863-12.776-1.172a2.421,2.421,0,0,0-2.4,2.4,2.446,2.446,0,0,0,2.4,2.4Z"/><path class="c" d="M148.3,179.836a57.466,57.466,0,0,0,4.02-10.818c1.048-3.513,2.013-7.05,3.086-10.556.905-2.96-3.726-4.226-4.629-1.276-1.045,3.415-1.987,6.86-3,10.283-.45,1.513-.905,3.024-1.427,4.513a38.226,38.226,0,0,1-2.19,5.432c-1.464,2.72,2.678,5.146,4.144,2.422Z"/><path class="c" d="M134.479,128.58a11.533,11.533,0,0,0-7.111,5.365c-1.658,3.207-1.231,7.339-1.351,10.836q-.2,5.691-.393,11.383a97.927,97.927,0,0,1-.685,11.242,2.477,2.477,0,0,0,1.676,2.952,2.418,2.418,0,0,0,2.952-1.676c1.041-6.89.907-13.981,1.147-20.933q.09-2.6.179-5.195a37.07,37.07,0,0,1,.226-4.762c.4-2.417,2.3-3.918,4.637-4.584,2.965-.846,1.7-5.479-1.277-4.628Z"/></svg>