<svg id="b" xmlns="http://www.w3.org/2000/svg" width="243.048" height="358.314" viewBox="0 0 243.048 358.314" style="color: initial !important;"><defs><style>.d{fill:#ffffff;}.e{fill:#211715;}.f{fill:#e8621a;}.g{fill:#645d5c;}</style></defs><g id="c"><path class="d" d="M165.948,81.628c-.427.261-.834.571-1.211.933,0,0,7.814-44.198-49.963-44.198s-50.598,44.198-50.598,44.198c-1.624-1.56-3.811-2.146-5.682-2.08-4.073.144-5.806,2.347-6.552,3.64-2.226,3.861-2.132,10.976-.638,15.378,1.058,3.118,2.792,7.887,6.972,11.307,1.853,1.516,4.646,2.475,7.229,1.812,1.893,6.43,5.321,14.192,11.342,21.398,4.016,4.806,8.205,8.554,12.775,11.161,0,3.118,0,7.431,0,7.431,0,1.378,0,2.881-.509,4.222-.683,1.763-1.602,3.29-3.079,4.482-3.129,2.521-6.345,3.725-10.306,5.215l-5.398,2.125c8.943,7.383,24.872,11.821,42.323,11.865,15.6.039,36.625-6.007,44.979-12.241l-4.431-1.748c-3.961-1.49-7.177-2.694-10.306-5.215-1.478-1.192-2.396-2.719-3.079-4.482-.509-1.341-.509-2.843-.509-4.222,0,0,0-3.864,0-7.364,11.281-6.728,20.075-21.932,21.713-26.379.58-1.209,1.53-3.698,2.301-6.239l.639.108c2.424.409,4.958-.519,6.681-1.928,4.18-3.42,5.913-8.189,6.972-11.307,1.494-4.402,1.589-11.517-.638-15.378-.746-1.294-2.479-3.497-6.552-3.64-1.437-.051-3.06.283-4.471,1.147Z"/><path class="g" d="M164.737,82.561c1.624-1.56,3.811-2.146,5.682-2.08.84.03,1.58.147,2.232.325,1.883-7.434,2.686-12.994,2.397-19.812-1.005-23.785-12.992-38.559-24.573-46.919-9.848-7.095-21.349-11.658-36.165-11.658-4.061,0-7.947.351-11.651,1.02-9.23,1.667-17.331,5.309-24.208,10.423-11.189,8.321-23.86,23.144-24.874,47.134-.253,5.994.556,12.903,2.464,19.879.703-.218,1.515-.36,2.451-.392,1.872-.066,4.059.52,5.682,2.08l1.064,1.022c3.486-3.885,6.973-7.77,6.973-7.77,6.031-6.72,16.676-16.85,24.145-20.768.876-.459,2.001.162,2.356,1.626.343,1.414.341,2.488.23,3.504-.169,1.543,1.328,2.666,2.601,1.959,5.333-2.962,14.834-8.924,21.572-11.764l9.991,1.227c3.216,1.398,5.663,2.742,9.202,5.787,6.065,5.218,11.879,12.377,14.454,18.857l7.975,6.319Z"/><path class="e" d="M149.063,10.199c-17.946-11.663-41.483-13.444-61.043-4.722-15.787,7.039-28.349,21.188-33.703,37.579-3.979,12.183-4.002,25.185-.831,37.546.767,2.99,5.398,1.723,4.629-1.276-2.682-10.455-2.908-21.257-.135-31.721,2.138-8.068,6.035-15.641,11.436-22.014,5.019-5.922,10.786-10.695,17.586-14.294,8.803-4.659,18.751-6.658,28.669-6.468,11.11.212,21.661,3.464,30.971,9.514,2.598,1.688,5.006-2.466,2.423-4.145h0Z"/><path class="e" d="M175.175,80.603c1.262-5.151,2.199-10.392,2.317-15.706.114-5.12-.401-10.294-1.416-15.312-1.703-8.423-5.149-16.541-10.206-23.5-2.508-3.451-5.341-6.638-8.5-9.505-2.283-2.072-5.687,1.312-3.394,3.394,5.334,4.843,9.715,10.577,12.874,17.06,3.915,8.032,5.752,17.032,5.851,25.939.062,5.563-.835,10.966-2.155,16.354-.735,3,3.893,4.28,4.629,1.276h0Z"/><path class="e" d="M131.894,53.67c5.067,2.219,9.201,5.52,13.022,9.493s7.444,8.566,9.531,13.716c.487,1.2,1.598,2.048,2.952,1.676,1.138-.313,2.166-1.744,1.676-2.952-2.364-5.832-6.157-10.976-10.468-15.523-4.137-4.364-8.76-8.133-14.291-10.555-1.186-.52-2.576-.348-3.284.861-.595,1.018-.333,2.761.861,3.284h0Z"/><path class="e" d="M73.908,77.51c5.958-6.62,12.547-13.096,19.929-18.12.798-.543,1.61-1.066,2.443-1.555.184-.108.996-.561.986-.575-.007-.012-.563-.041-.748-.05-.35-.018-.224-.587-.12.1.362,2.389-.334,5.054,1.978,6.668,2.198,1.535,4.281.301,6.286-.852,1.889-1.087,3.765-2.195,5.65-3.29,4.559-2.649,9.155-5.324,14.014-7.392,1.193-.508,1.456-2.266.861-3.284-.722-1.234-2.086-1.371-3.284-.861-4.326,1.841-8.437,4.176-12.506,6.52-1.969,1.134-3.927,2.287-5.892,3.429-.813.472-1.627.943-2.445,1.406-.124.07-.539.217-.611.343-.198.346.101-.256.584.014.069.038.489.408.297.513.029-.016.063-.979.066-1.037.117-2.509-.518-5.893-3.252-6.784-2.07-.675-3.963.745-5.627,1.813-3.996,2.565-7.68,5.646-11.202,8.82-3.779,3.405-7.399,6.999-10.802,10.781-2.062,2.291,1.322,5.696,3.394,3.394h0Z"/><path class="e" d="M107.625,127.571c.369-.195.74-.382,1.118-.558.08-.038.474-.191.108-.05-.392.152.105-.037.145-.051.273-.097.545-.195.823-.28.75-.23,1.516-.394,2.29-.515-.342.054.12-.015.244-.028.225-.024.451-.045.677-.061.546-.04,1.093-.06,1.64-.064,1.928-.011,3.105.077,4.899.638.317.099.624.219.934.335-.561-.21.057.038.263.146.191.1.379.207.561.322.195.123.826.602.108.043,1.021.796,2.398.996,3.394,0,.829-.829,1.028-2.593,0-3.394-2.802-2.183-6.346-2.866-9.842-2.889-3.449-.022-6.735.651-9.785,2.262-1.146.605-1.495,2.199-.861,3.284.679,1.16,2.133,1.468,3.284.861h0Z"/><path class="e" d="M113.842,102.74c.43,1.64.843,3.307,1.09,4.986l-.086-.638c.029.23.042.457.019.688l.086-.638c-.016.107-.04.207-.076.309l.242-.573c-.032.072-.065.134-.109.199l.375-.486c-.051.062-.1.11-.163.161l.486-.375c-.126.081-.259.146-.395.209l.573-.242c-.217.091-.433.157-.666.194l.638-.086c-.21.025-.415.023-.625-.001l.638.086c-.236-.033-.467-.09-.702-.122-.67-.09-1.239-.115-1.849.242-.498.291-.973.862-1.103,1.434-.14.614-.11,1.304.242,1.849.312.484.835,1.022,1.434,1.103.522.07,1.029.204,1.56.227.808.035,1.56-.21,2.282-.54.888-.406,1.58-1.196,1.817-2.153.2-.809.113-1.526-.024-2.336-.271-1.606-.643-3.198-1.056-4.774-.318-1.214-1.729-2.072-2.952-1.676-1.25.404-2.018,1.651-1.676,2.952h0Z"/><path class="e" d="M87.224,88.662c-.833,2.706-.29,8.93,4.836,9.46,6.775-.041,7.136-7.566,4.855-11.104-1.867-2.897-7.358-4.102-9.691,1.644Z"/><path class="e" d="M141.687,88.662c.833,2.706.29,8.93-4.836,9.46-6.775-.041-7.136-7.566-4.855-11.104,1.867-2.897,7.358-4.101,9.691,1.645Z"/><path class="e" d="M65.872,80.864c-3.296-2.993-8.124-3.59-12.121-1.649-2.923,1.419-4.592,4.369-5.315,7.427-1.714,7.245.129,15.513,4.336,21.616,3.011,4.368,7.297,7.554,12.821,6.79,1.285-.178,1.987-1.82,1.676-2.952-.38-1.384-1.663-1.855-2.952-1.676-3.04.421-5.699-2.163-7.293-4.431-1.531-2.178-2.576-4.611-3.407-7.128-.928-2.807-1.161-5.805-.909-8.743.114-1.331.375-2.722.889-3.96.173-.416.399-.812.641-1.193.049-.078.359-.488.221-.319-.109.133.316-.328.417-.427,1.79-1.752,5.534-1.838,7.602.039,2.283,2.072,5.687-1.312,3.394-3.394h0Z"/><path class="e" d="M166.434,84.258c1.907-1.731,5.08-1.854,7.184-.393.603.419.864.745,1.282,1.467.664,1.148.986,2.494,1.19,3.796.851,5.419-.645,11.151-3.492,15.783-1.63,2.651-4.504,5.992-8.002,5.508-1.282-.177-2.577.311-2.952,1.676-.308,1.121.384,2.774,1.676,2.952,9.04,1.25,14.26-7.653,16.653-15.06,1.213-3.753,1.38-7.9.8-11.781-.49-3.282-1.813-6.474-4.618-8.41-3.967-2.739-9.625-2.102-13.115,1.067-2.292,2.081,1.11,5.467,3.394,3.394h0Z"/><path class="e" d="M161.951,108.297c-.759,3.699-2.155,7.216-3.473,10.503.281-.701-.206.434-.327.688-.245.512-.503,1.018-.769,1.521-.636,1.204-1.318,2.385-2.029,3.546-3.657,5.974-8.113,11.629-13.575,16.056-2.955,2.395-6.285,4.299-9.973,5.149-3.009.693-1.735,5.322,1.276,4.629,7.605-1.752,13.929-7.315,18.894-13.083,4.13-4.798,7.974-10.2,10.598-15.99.255-.562.48-1.137.719-1.706-.243.578-.073.188-.017.067.158-.343.3-.694.445-1.042.197-.473.387-.949.569-1.428.942-2.481,1.757-5.032,2.29-7.634.26-1.269-.368-2.593-1.676-2.952-1.187-.326-2.691.401-2.952,1.676h0Z"/><path class="e" d="M62.188,109.394c1.673,7.391,4.674,14.552,8.875,20.864,4.526,6.801,10.471,13.166,17.665,17.171,3.693,2.056,7.727,3.449,11.907,4.065,1.281.189,2.579-.319,2.952-1.676.311-1.13-.386-2.762-1.676-2.952-14.935-2.202-26.12-15.148-31.79-28.417-1.422-3.327-2.506-6.805-3.305-10.331-.682-3.012-5.311-1.737-4.629,1.276h0Z"/><path class="e" d="M87.22,147.319v4.698c0,1.552.073,3.065-.567,4.513-1.235,2.798-3.863,4.351-6.521,5.631-3.365,1.621-6.993,2.819-10.471,4.188-1.205.474-2.046,1.607-1.676,2.952.316,1.148,1.739,2.154,2.952,1.676,4.169-1.641,8.561-3.045,12.527-5.129,3.292-1.729,6.105-4.019,7.596-7.499,1.461-3.409.96-7.401.96-11.031,0-3.089-4.8-3.094-4.8,0h0Z"/><path class="e" d="M136.904,146.151v5.192c0,2.039-.098,4.173.595,6.124,1.322,3.722,4.075,6.239,7.467,8.115,4.074,2.253,8.678,3.686,13.008,5.395,1.206.476,2.635-.522,2.952-1.676.374-1.363-.466-2.475-1.676-2.952-3.632-1.433-7.449-2.667-10.934-4.422-2.678-1.348-5.396-3.073-6.315-6.104-.504-1.663-.297-3.55-.297-5.265v-4.405c0-3.089-4.8-3.094-4.8,0h0Z"/><path class="e" d="M89.603,115.578c-.16-.002-.321-.002-.48-.019.345.038-.041-.027-.184-.067-.046-.013-.449-.169-.271-.084.183.087-.206-.131-.241-.153-.332-.207.34.337-.172-.144-.077-.073-.257-.26-.096-.062-.198-.244-.362-.547-.49-.833.133.296-.023-.105-.058-.22-.046-.156-.086-.312-.12-.471-.01-.045-.072-.474-.055-.292.017.183-.006-.284-.007-.33-.006-.221.002-.44.011-.66.003-.077.036-.405.002-.151.052-.393.154-.786.264-1.165.323-1.113.909-2.126,1.681-3.241.722-1.042,1.515-2.035,2.213-3.094l-3.769.486c.374.439.737.886,1.098,1.335.267.333-.058-.081.105.133.093.123.186.246.278.37.211.284.418.57.62.861.392.564.768,1.141,1.102,1.742.414.745.547,1.01.789,1.793.051.166.098.333.138.502.014.057.112.587.071.258.041.329,0,.652.014.979.015.34.089-.318.003.011-.046.176-.073.356-.123.531-.04.14-.088.277-.134.415.108-.321.02-.042-.066.121-.067.128-.139.253-.216.375-.094.15-.293.376-.07.124-.095.108-.191.215-.293.316-.003.003-.465.382-.25.232.205-.144-.208.114-.247.136-.104.058-.511.202-.219.109-.158.05-.317.093-.479.131-.679.159.348,0-.347.026-1.253.045-2.459,1.072-2.4,2.4.057,1.262,1.056,2.448,2.4,2.4,4.657-.166,7.757-4.388,7.153-8.884-.505-3.758-3.153-7.015-5.533-9.811-1.058-1.243-2.983-.706-3.769.486-.849,1.287-1.834,2.478-2.67,3.774-1.068,1.655-1.789,3.501-2.052,5.455-.271,2.017.03,4.266,1.213,5.974,1.328,1.918,3.322,2.971,5.658,3.007,1.256.019,2.457-1.118,2.4-2.4-.059-1.317-1.054-2.38-2.4-2.4Z"/><path class="e" d="M85.497,80.737c1.764-.112,3.41-.603,4.997-1.37,1.407-.68,2.68-1.657,3.566-2.954.337-.493.396-1.291.242-1.849s-.584-1.16-1.103-1.434c-.557-.294-1.232-.442-1.849-.242s-1.066.564-1.434,1.103c-.041.06-.083.119-.127.177l.375-.486c-.271.347-.592.644-.938.915l.486-.375c-.673.516-1.419.922-2.199,1.252l.573-.242c-.851.352-1.736.609-2.649.735l.638-.086c-.192.024-.385.043-.578.055-.639.04-1.234.24-1.697.703-.416.416-.73,1.099-.703,1.697.055,1.232,1.058,2.485,2.4,2.4h0Z"/><path class="d" d="M44.973,177.995c7.901-3.225,15.178-6.405,23-9.748.707-.302,1.526-.226,2.147.227,8.899,7.489,24.941,11.998,42.53,12.042,16.045.04,37.826-6.357,45.661-12.777,8.487,2.89,13.668,4.094,21.969,7.482,6.794,3.068,11.822,5.357,17.259,10,10.013,8.773,15.372,18.389,20.971,30.504,8.605,21.226,16.203,42.968,20.881,65.401,1.395,6.689,2.001,13.739.037,20.283-2.74,9.134-9.972,14.154-19.561,14.272-3.921.048-7.243-.242-10.56-1.125-6.084-1.62-11.768-5.054-18.667-10.194,0,0,0,6.2,0,11.453H2.406c2.498-30.074,4.864-60.353,9.737-90.156,1.599-9.783,4.04-19.712,9.137-28.314,5.584-9.423,13.903-14.935,23.696-19.35"/><path class="e" d="M4.806,315.816c1.745-21.014,3.42-42.04,5.928-62.98,1.219-10.181,2.504-20.407,4.418-30.485,1.744-9.186,4.402-18.522,9.801-26.283,5.208-7.486,13.072-12.301,21.235-16,1.181-.535,1.467-2.248.861-3.284-.71-1.214-2.098-1.398-3.284-.861-7.603,3.445-14.941,7.887-20.368,14.344-6.214,7.393-9.697,16.683-11.863,25.993-2.382,10.239-3.616,20.804-4.94,31.221-1.36,10.707-2.481,21.444-3.485,32.19-1.125,12.04-2.103,24.093-3.103,36.144-.107,1.293,1.18,2.4,2.4,2.4,1.388,0,2.292-1.103,2.4-2.4h0Z"/><path class="e" d="M45.611,180.31c4.562-1.864,9.101-3.785,13.631-5.725,2.271-.972,4.54-1.949,6.81-2.923.905-.388,1.95-1.048,2.92-1.219-.36.064-.325-.093.042.213.434.362.892.701,1.345,1.039,5.957,4.439,13.271,7.08,20.445,8.763,8.318,1.952,17.09,2.818,25.627,2.357,7.942-.429,15.874-1.935,23.501-4.162,6.964-2.033,14.364-4.596,20.075-9.216l-2.335.617c10.127,3.436,20.377,6.205,29.862,11.285,8.742,4.682,15.644,12.033,20.893,20.37,3.06,4.861,5.6,10.023,8.011,15.23.545,1.176,2.241,1.471,3.284.861,1.207-.706,1.408-2.103.861-3.284-5.555-11.999-12.247-23.86-22.806-32.188-11.031-8.701-24.845-12.203-37.914-16.593-1.237-.416-2.16-.539-3.248.308-.334.26.116-.074-.236.187-.226.168-.456.331-.688.491-.918.631-1.875,1.203-2.852,1.737-2.26,1.235-4.622,2.271-7.029,3.184-6.003,2.277-12.258,3.932-18.572,5.074-13.271,2.401-27.262,1.753-40.171-2.245-5.341-1.654-10.631-3.97-15.015-7.498-1.846-1.486-3.605-1.515-5.74-.604-1.852.79-3.702,1.587-5.552,2.381-3.602,1.547-7.203,3.095-10.819,4.611-1.865.782-3.734,1.556-5.606,2.321-1.199.49-2.049,1.596-1.676,2.952.312,1.136,1.745,2.17,2.952,1.676h0Z"/><path class="e" d="M35.096,232.686c.912,19.483,1.709,38.973,2.553,58.46.356,8.223.713,16.447,1.067,24.67.132,3.077,4.933,3.094,4.8,0-1.087-25.267-2.185-50.534-3.295-75.8-.107-2.443-.211-4.887-.325-7.33-.144-3.076-4.945-3.093-4.8,0h0Z"/><path class="e" d="M182.018,254.061c6.024,4.141,12.048,8.282,18.072,12.423,1.069.735,2.663.2,3.284-.861.696-1.19.21-2.547-.861-3.284-6.024-4.141-12.048-8.282-18.072-12.423-1.069-.735-2.663-.2-3.284.861-.696,1.19-.21,2.547.861,3.284h0Z"/><path class="e" d="M216.196,216.364c7.798,19.253,14.774,38.9,19.5,59.153,2.099,8.995,4.6,19.449.281,28.214-3.199,6.49-9.533,9.513-16.577,9.555-4.862.029-9.611-.678-14.085-2.654-4.841-2.138-9.231-5.199-13.463-8.342-1.041-.774-2.68-.171-3.284.861-.715,1.223-.183,2.508.861,3.284,7.867,5.845,16.199,10.848,26.195,11.541,8.184.567,16.637-1.176,21.977-7.905,6.396-8.061,6.171-19.063,4.289-28.668-2.093-10.681-5.044-21.223-8.351-31.585-3.75-11.749-8.086-23.301-12.715-34.729-.486-1.201-1.599-2.048-2.952-1.676-1.139.313-2.166,1.744-1.676,2.952h0Z"/><path class="e" d="M85.556,316.589c-3.21,1.494-6.196,3.805-8.446,6.541-2.154,2.619-3.656,5.812-4.775,9.002-1.079,3.075-1.745,6.505-1.184,9.741.587,3.386,3.502,5.156,6.773,5.254,1.622.049,3.202-.406,4.718-.934,1.785-.621,3.591-1.454,4.895-2.867,2.684-2.91,2.837-7.304-.392-9.865-6.108-4.843-15.336-.996-20.767,3.049-6.252,4.655-10.84,11.273-12.843,18.824-.793,2.989,3.836,4.264,4.629,1.276,1.338-5.044,3.973-9.641,7.663-13.335,3.765-3.769,9.096-7.301,14.62-7.17,1.392.033,4.64.51,4.369,2.539-.304,2.284-3.976,3.299-5.825,3.626-.744.131-1.648.117-2.392-.207-.649-.283-.73-.68-.849-1.641-.277-2.244.437-4.753,1.16-6.86.833-2.427,1.985-5.03,3.595-7.038,1.987-2.478,4.603-4.455,7.474-5.791,1.175-.547,1.472-2.239.861-3.284-.705-1.205-2.104-1.41-3.284-.861h0Z"/><path class="f" d="M100.285,263.161c-3.243,6.588-2.883,14.561-2.067,21.962,4.161.278,5.553,6.675,6.608,9.658,5.412,15.307,18.882,26.026,33.531,28.475,14.034,2.346,27.108-.617,40.186-12.655,2.54-2.338,6.04-7.372,9.99-5.872,2.431-2.38,4.007-6.824,5.218-9.981,1.471-3.835,2.391-7.929,2.013-12.054-.957-10.438-9.757-18.658-18.695-23.038-6.922-3.383-14.364-5.605-21.901-7.121-7.346-1.477-14.666-3.228-22.177-3.637-7.165-.39-14.521.437-21.025,3.467-4.236,1.974-8.104,4.928-10.606,8.875-.396.625-.754,1.266-1.076,1.92Z"/><path class="d" d="M123.889,341.862c-2.513-3.514-.442-7.154,1.06-8.369,2.506-2.029,6.765-1.272,8.474,1.017,2.4,3.214.72,6.551-1.73,8.476-2.085,1.638-6.051,1.327-7.804-1.124Z"/><path class="e" d="M125.961,340.651c-.203-.292-.376-.594-.548-.905-.219-.396.124.387-.021-.028-.069-.197-.136-.394-.188-.597-.035-.136-.038-.316-.095-.443-.004-.01.051.535.035.273-.004-.072-.014-.145-.019-.217-.021-.309.005-.61.012-.917.005-.262-.05.316-.045.296.016-.065.022-.135.034-.201.028-.154.062-.307.101-.459.033-.128.07-.254.111-.379.033-.103.229-.586.059-.197-.169.387.016-.027.059-.115.054-.11.11-.219.17-.326.132-.238.28-.463.435-.687.024-.035.063-.109.098-.133.052-.035-.382.455-.21.276.071-.073.132-.156.201-.231.136-.148.287-.278.431-.418.209-.204-.46.304-.12.097.106-.065.207-.137.315-.2.124-.072.263-.126.384-.202.2-.126-.306.121-.29.117.078-.019.156-.061.232-.088.234-.083.474-.149.717-.201.11-.023.256-.075.368-.067.051.004-.596.05-.328.047.082,0,.167-.015.25-.02.271-.017.543-.017.815-.001.107.006.276-.01.375.032.046.019-.589-.102-.328-.044.081.018.165.027.246.043.244.047.485.107.723.18.137.042.271.093.407.139.352.118-.516-.254-.07-.027.214.109.425.218.627.346.099.063.192.137.291.198.218.132-.306-.213-.255-.199.054.015.133.111.175.149.099.088.194.181.285.277.071.076.331.399.068.055-.282-.37.075.117.136.21.108.166.209.337.301.513.038.072.069.149.108.22.126.227-.084-.195-.085-.207.004.131.11.309.147.438.041.144.071.29.105.435.046.201-.043.318-.022-.206-.004.093.017.193.021.286.006.142.006.284,0,.425-.003.07-.014.141-.014.211,0,.258.049-.303.045-.29-.081.292-.117.591-.213.882-.03.091-.208.541-.052.172s-.067.124-.119.223c-.144.272-.306.534-.484.786-.04.057-.091.113-.126.174-.006.01.326-.394.155-.204-.096.106-.185.219-.281.326-.225.247-.464.481-.715.702-.075.066-.465.376-.127.119.325-.247.002-.009-.078.043-.141.091-.459.343-.63.338-.061-.002.562-.2.313-.137-.072.018-.143.052-.214.075-.145.047-.292.088-.441.123-.08.019-.324.113-.398.079-.043-.019.601-.059.348-.046-.078.004-.157.016-.235.022-.277.021-.555.023-.833.007-.124-.007-.301.007-.418-.037-.053-.02.599.111.341.042-.096-.026-.198-.036-.295-.057-.276-.061-.539-.15-.808-.236-.349-.111.518.259.076.031-.124-.064-.249-.125-.371-.195s-.236-.148-.353-.224c-.428-.277.377.352.016.007-.101-.097-.205-.19-.301-.292-.132-.141-.46-.595-.009.018-.383-.52-.789-.925-1.434-1.103-.574-.158-1.339-.087-1.849.242-.998.644-1.657,2.202-.861,3.284,1.051,1.428,2.394,2.424,4.095,2.958,1.474.463,3.126.484,4.622.115,1.527-.376,2.847-1.286,3.905-2.431,1.17-1.267,2.153-2.867,2.412-4.598.303-2.023-.079-4.068-1.303-5.747-1.04-1.427-2.381-2.372-4.04-2.965-2.882-1.03-6.529-.479-8.685,1.789-2.783,2.927-3.35,7.511-1.006,10.878.716,1.028,2.135,1.602,3.284.861,1.022-.659,1.628-2.182.861-3.284Z"/><path class="d" d="M138.358,323.256c14.034,2.346,27.108-.617,40.186-12.655,2.721-2.504,6.544-8.104,10.842-5.448,1.748,1.081,2.114,2.958,2.069,4.923-.044,1.965-1.491,5.061-2.666,6.642-12.824,17.255-32.909,24.3-53.866,19.062-21.417-5.353-36.102-16.428-41.464-38.534-.451-1.86-.721-6.735-.046-8.518.676-1.783,1.527-3.082,3.469-3.506,5.214-1.139,6.783,6.276,7.944,9.558,5.412,15.307,18.882,26.026,33.531,28.475Z"/><path class="e" d="M137.72,325.571c9.394,1.539,18.739.795,27.496-3.082,4.703-2.082,8.987-5.001,12.904-8.317,1.65-1.397,3.13-2.909,4.643-4.446,1.096-1.114,2.589-2.665,4.03-2.862.42-.058,1.01.031,1.489.429.659.546.755,1.432.773,2.235.043,1.889-.941,3.891-1.996,5.49-2.418,3.662-5.784,6.925-9.168,9.687-6.595,5.384-14.76,8.893-23.202,9.984-8.905,1.151-17.719-.416-26.157-3.273-7.095-2.403-13.932-5.915-19.452-11.029-5.491-5.087-9.435-11.54-11.819-18.615-1.306-3.877-2.118-7.158-1.787-11.219.081-.99.607-2.718,2.048-3.015.303-.062.281-.06.696-.022-.289-.027.422.14.276.073.176.081.345.182.505.291-.08-.054-.302-.267.073.062.175.154.696.746.605.624,1.843,2.452,2.319,5.683,3.507,8.627,1.761,4.364,4.112,8.368,7.057,12.038,5.502,6.856,13.049,12.062,21.389,14.827,1.99.66,4.025,1.159,6.091,1.514,1.276.219,2.585-.34,2.952-1.676.317-1.154-.392-2.732-1.676-2.952-8.921-1.532-17.059-6.019-23.223-12.635-3.169-3.401-5.726-7.332-7.615-11.578-1.475-3.315-2.07-7.077-4.048-10.16-1.037-1.617-2.441-2.998-4.308-3.588-2.192-.693-4.821-.076-6.502,1.471-3.284,3.02-2.942,8.266-2.361,12.281.62,4.288,2.363,8.632,4.194,12.533,1.742,3.713,3.963,7.166,6.581,10.322,5.232,6.305,12.186,10.985,19.676,14.198,8.663,3.716,18.123,6.201,27.596,6.089,9.535-.113,18.986-2.822,27.042-7.948,4.164-2.65,7.97-5.897,11.256-9.577,3.125-3.5,6.686-7.842,6.572-12.821-.062-2.698-1.088-5.272-3.557-6.618-2.155-1.175-4.539-1.016-6.692.051-1.902.943-3.462,2.554-4.912,4.069-1.789,1.869-3.693,3.6-5.737,5.19-7.831,6.092-17.135,9.591-27.102,9.366-2.3-.052-4.59-.271-6.86-.643-1.278-.209-2.583.333-2.952,1.676-.315,1.147.39,2.741,1.676,2.952Z"/><path class="e" d="M190.29,306.371c1.717-1.782,2.898-3.966,3.874-6.22,1.038-2.395,2.038-4.856,2.793-7.357,1.59-5.273,1.806-10.954-.119-16.17-3.523-9.54-12.022-16.211-21.07-20.209-5.551-2.453-11.336-4.284-17.252-5.617-5.864-1.322-11.798-2.582-17.746-3.465-11.362-1.686-23.959-1.464-33.868,5.112-5.091,3.379-8.822,8.203-10.454,14.125-1.651,5.99-1.303,12.327-.642,18.434.139,1.289,1.003,2.4,2.4,2.4,1.189,0,2.54-1.103,2.4-2.4-.526-4.864-.951-9.919-.071-14.767.853-4.702,2.946-8.797,6.565-11.959,7.783-6.798,19.162-7.724,28.998-6.736,5.582.56,11.071,1.797,16.558,2.927s10.863,2.388,16.119,4.28c8.494,3.057,17.006,7.742,21.76,15.732,2.698,4.534,3.531,9.671,2.376,14.83-.584,2.612-1.559,5.116-2.552,7.595-.856,2.135-1.847,4.396-3.463,6.072-2.144,2.225,1.246,5.623,3.394,3.394h0Z"/><path class="d" d="M129.736,257.606c.179-5.122.573-8.926,2.55-13.687,1.775-4.274,5.837-7.657,10.455-9.171,2.438-.799,5.099-1.419,10.44-1.381,3.784-.058,8.805,1.199,11.411,2.267,5.304,2.173,11.899,5.279,15.816,10.543,2.643,3.553,2.884,6.777,2.734,13.374-1.042,6.6-4.585,11.177-8.265,15.155-1.743,1.984-3.923,2.965-5.483,3.404-1.417.399-2.981.562-4.327-.035-1.346-.596-2.347-2.142-1.926-3.553-.526,1.671-1.356,3.309-2.72,4.409-1.364,1.1-3.385,1.48-4.806,1.02-2.218-.719-3.545-2.326-3.056-5.792-1.424,2.846-4.005,4.085-6.427,3.639-1.894-.349-3.626-1.848-4.134-3.118-.99-2.475-1.615-5.211-1.204-8.674-.269,2.837-2.875,5.042-5.674,4.506-1.902-.365-3.739-1.615-4.709-4.506-.783-2.332-.774-5.546-.674-8.4Z"/><path class="d" d="M134.55,347.701c-3.692-5.163-.649-10.508,1.557-12.294,3.681-2.981,9.938-1.869,12.449,1.494,3.526,4.722,1.058,9.622-2.541,12.451-3.063,2.407-8.889,1.949-11.464-1.651Z"/><path class="e" d="M136.623,346.49c-.298-.428-.561-.869-.806-1.329,0,0-.179-.363-.083-.156.094.202-.059-.149-.061-.155-.105-.288-.2-.58-.276-.877-.055-.215-.089-.434-.139-.651.093.401-.005-.042-.016-.217-.031-.453.012-.896.017-1.347.003-.278-.021.101-.026.136.015-.099.032-.197.05-.296.041-.226.091-.451.149-.674.049-.187.103-.373.163-.557.03-.091.061-.181.093-.271.019-.054.158-.45.05-.152-.102.281.103-.221.143-.304.079-.162.162-.321.249-.478.194-.35.411-.682.639-1.01.035-.05.093-.163.144-.196.014-.009-.318.37-.132.178.104-.107.194-.229.295-.339.2-.218.421-.409.633-.614.231-.224-.325.205.051-.033.154-.098.305-.201.463-.293.181-.105.389-.183.564-.296.218-.14-.128.048-.157.059.113-.043.226-.088.341-.129.344-.121.697-.219,1.054-.296.179-.038.36-.065.541-.098-.492.09-.045.014.184,0,.398-.025.798-.025,1.197-.002.184.011.367.036.551.047-.493-.028-.05-.005.179.04.358.069.713.158,1.062.265.202.062.399.135.599.204.052.018.338.134.046.013-.303-.125.064.032.12.06.315.157.624.32.922.508.145.092.282.201.428.29.224.136-.135-.104-.147-.116.082.076.173.144.257.219.145.13.285.266.419.407.06.063.423.451.189.194-.244-.267.035.049.07.101.073.107.147.214.218.322.159.244.308.495.442.753.051.098.279.628.148.287.081.211.154.426.216.643.061.211.104.426.154.64.025.108.04.459.008-.003.01.14.025.28.031.42.009.208.009.417,0,.625-.008.19-.064.612.006.182-.071.44-.173.872-.313,1.295-.029.09-.229.613-.134.387.108-.256-.03.059-.046.091-.062.124-.121.248-.186.37-.211.4-.45.785-.71,1.154-.06.086-.122.17-.184.255.025-.034.232-.272.051-.072-.141.156-.271.322-.413.478-.33.363-.681.707-1.05,1.031-.072.063-.534.449-.301.263s-.159.107-.229.151c-.212.137-.668.499-.925.496-.017,0,.464-.155.192-.087-.105.026-.21.076-.314.11-.213.069-.429.129-.648.181-.109.026-.488.167-.585.117-.01-.005.499-.044.212-.027-.115.007-.23.024-.345.032-.407.031-.816.034-1.223.011-.189-.011-.433.004-.614-.054.002,0,.472.096.201.022-.141-.038-.291-.053-.434-.084-.405-.089-.794-.217-1.187-.346-.053-.018-.34-.124-.041-.01.308.117-.056-.028-.116-.058-.183-.093-.366-.184-.544-.287s-.348-.216-.519-.329c-.071-.047-.357-.289-.109-.074s-.051-.051-.095-.093c-.15-.141-.301-.279-.443-.429-.106-.113-.537-.674-.189-.201-.742-1.008-2.115-1.614-3.284-.861-.998.644-1.657,2.202-.861,3.284,2.634,3.579,7.24,5.056,11.535,3.998,2.064-.508,3.812-1.735,5.239-3.282,1.597-1.73,2.904-3.898,3.254-6.257.398-2.679-.191-5.367-1.8-7.574-1.341-1.84-3.125-3.074-5.263-3.838-3.869-1.382-8.756-.719-11.663,2.338-3.762,3.956-4.455,10.086-1.302,14.615.716,1.028,2.135,1.602,3.284.861,1.022-.659,1.628-2.182.861-3.284Z"/><path class="e" d="M132.136,257.606c.145-3.965.531-7.808,1.888-11.564,1.194-3.304,3.384-5.896,6.429-7.656,5.482-3.168,12.79-3.25,18.81-1.866,3.163.728,6.128,1.94,9.032,3.377,3.205,1.586,6.307,3.469,8.796,6.068,1.94,2.026,3.127,4.183,3.487,6.803.497,3.618.33,7.313-.963,10.738-1.346,3.563-3.769,6.596-6.314,9.373-1.232,1.344-2.649,2.358-4.411,2.878-.808.239-1.793.492-2.621.203-.297-.103-.901-.4-.813-.799.669-3.021-3.66-4.214-4.629-1.276-.647,1.962-2.008,4.25-4.417,3.795-.416-.079-.49-.129-.906-.416-.067-.046-.326-.34-.357-.391-.347-.58-.302-1.78-.187-2.714.296-2.407-3.417-3.206-4.472-1.211-1.166,2.203-3.418,3.447-5.526,1.702-.999-.827-1.27-2.218-1.552-3.433-.399-1.72-.401-3.46-.215-5.21.137-1.291-1.201-2.4-2.4-2.4-1.436,0-2.232,1.109-2.4,2.4-.318,2.449-3.138,2.588-4.511,1.286-2.354-2.233-1.843-6.785-1.747-9.686.102-3.09-4.698-3.086-4.8,0-.164,4.965-.154,11.595,4.849,14.36,2.155,1.191,4.73,1.364,6.95.247,2.441-1.228,3.717-3.586,4.058-6.207h-4.8c-.483,4.542.344,10.483,4.563,13.082,4.303,2.651,9.433.517,11.675-3.718l-4.472-1.211c-.467,3.798,1.35,7.382,5.296,8.223,4.997,1.064,8.576-2.899,10.001-7.221l-4.629-1.276c-.542,2.447.568,4.836,2.725,6.109,2.051,1.21,4.702,1.008,6.884.308,4.28-1.374,7.15-4.741,9.769-8.223,2.641-3.512,4.804-7.79,5.295-12.209.234-2.101.137-4.367-.056-6.473-.162-1.762-.458-3.492-1.131-5.134-3.203-7.82-11.907-12.145-19.334-15.044-7.099-2.771-15.809-3.197-23.058-.724-4.645,1.585-8.971,4.787-11.245,9.217-2.521,4.911-3.141,10.459-3.34,15.893-.113,3.089,4.687,3.085,4.8,0Z"/><path class="e" d="M165.456,275.161c.3-2.147,1.027-4.262,1.725-6.306.433-1.268.896-2.526,1.394-3.77.12-.301.245-.601.368-.901.114-.278-.168.384.016-.037.062-.141.122-.282.184-.422.242-.548.495-1.092.761-1.629.557-1.123.338-2.65-.861-3.284-1.085-.573-2.688-.34-3.284.861-1.232,2.485-2.24,5.095-3.143,7.717-.724,2.103-1.48,4.283-1.789,6.495-.173,1.238.3,2.639,1.676,2.952,1.131.258,2.767-.346,2.952-1.676h0Z"/><path class="e" d="M154.923,273.976c.385-3.824.71-7.661,1.366-11.451.52-3.008,1.377-5.807,2.458-8.66.46-1.212-.51-2.632-1.676-2.952-1.349-.371-2.491.46-2.952,1.676-1.127,2.973-1.994,5.886-2.52,9.024-.686,4.096-1.06,8.234-1.475,12.363-.13,1.292,1.196,2.4,2.4,2.4,1.406,0,2.27-1.105,2.4-2.4h0Z"/><path class="e" d="M143.194,266.006c.116-1.095.228-2.19.36-3.283.037-.304.075-.609.114-.913-.034.262-.015.105.009-.064.022-.159.045-.317.068-.476.101-.693.212-1.384.337-2.073.243-1.343.536-2.678.905-3.992.186-.66.39-1.314.619-1.961.285-.803.357-.984.668-1.654.545-1.175.332-2.586-.861-3.284-1.037-.607-2.736-.32-3.284.861-2.459,5.303-3.127,11.087-3.735,16.837-.132,1.253,1.198,2.454,2.4,2.4,1.414-.063,2.258-1.058,2.4-2.4h0Z"/></g></svg>